<svg width="14" height="14" viewBox="0 0 14 14" fill="none" xmlns="http://www.w3.org/2000/svg">
<path d="M0.820101 6.15681H10.8288C10.8894 6.15622 10.9434 6.11846 10.9648 6.06175C10.9861 6.00504 10.9705 5.94103 10.9253 5.90061L5.87329 1.45516C5.54317 1.14391 5.5189 0.6271 5.81841 0.28629C6.11792 -0.0545208 6.63357 -0.0968522 6.98465 0.190548L13.5247 5.94565C13.8269 6.21214 14 6.59562 14 6.99852C14 7.40141 13.8269 7.78489 13.5247 8.05138L6.98582 13.8053C6.63458 14.089 6.12212 14.0453 5.824 13.7062C5.52588 13.3672 5.54813 12.8533 5.87446 12.5413L10.9265 8.09584C10.9716 8.05542 10.9873 7.99141 10.9659 7.93469C10.9446 7.87798 10.8906 7.84022 10.83 7.83964H0.820101C0.363718 7.82761 0 7.45418 0 6.99764C0 6.5411 0.363718 6.16767 0.820101 6.15564V6.15681Z" fill="white"/>
</svg>
