<svg width="30" height="30" viewBox="0 0 30 30" fill="none" xmlns="http://www.w3.org/2000/svg">
<path fill-rule="evenodd" clip-rule="evenodd" d="M13.75 21.25C13.6087 21.25 13.47 21.2013 13.36 21.1138L7.10999 16.1137C6.84124 15.8975 6.79749 15.5038 7.01249 15.235C7.13124 15.085 7.30999 15 7.49999 15C7.64124 15 7.77999 15.0487 7.88999 15.1363L13.6325 19.73L21.9975 8.37875C22.1137 8.22 22.3012 8.125 22.5 8.125C22.635 8.125 22.7625 8.1675 22.8712 8.2475C23.005 8.34625 23.0925 8.49125 23.1187 8.65625C23.145 8.82125 23.1025 8.98625 23.0037 9.12125L14.2537 20.9963C14.1537 21.1325 14 21.2238 13.8312 21.245C13.805 21.2487 13.7775 21.25 13.75 21.25Z" fill="#FF8200"/>
<path fill-rule="evenodd" clip-rule="evenodd" d="M15 30C6.72875 30 0 23.2712 0 15C0 6.72875 6.72875 0 15 0C23.2712 0 30 6.72875 30 15C30 23.2712 23.2712 30 15 30ZM15 1.25C7.41875 1.25 1.25 7.41875 1.25 15C1.25 22.5812 7.41875 28.75 15 28.75C22.5812 28.75 28.75 22.5812 28.75 15C28.75 7.41875 22.5812 1.25 15 1.25Z" fill="#FF8200"/>
</svg>
