<svg width="31" height="31" viewBox="0 0 31 31" fill="none" xmlns="http://www.w3.org/2000/svg">
<circle cx="15.2976" cy="15.9597" r="2.68289" fill="black"/>
<path fill-rule="evenodd" clip-rule="evenodd" d="M18.6513 9.37402H11.9441C10.9685 9.37402 10.1148 9.6789 9.56605 10.2277C9.01728 10.7764 8.7124 11.6301 8.7124 12.6057V19.3129C8.7124 20.2885 9.01728 21.1422 9.62702 21.7519C10.2368 22.3007 11.0294 22.6056 12.005 22.6056H18.6513C19.6269 22.6056 20.4805 22.3007 21.0293 21.7519C21.6391 21.2031 21.9439 20.3495 21.9439 19.3739V12.6667C21.9439 11.6911 21.6391 10.8984 21.0903 10.2886C20.4805 9.6789 19.6879 9.37402 18.6513 9.37402ZM15.2977 20.1056C12.9806 20.1056 11.1514 18.2154 11.1514 15.9593C11.1514 13.6423 13.0416 11.813 15.2977 11.813C17.5537 11.813 19.5049 13.6423 19.5049 15.9593C19.5049 18.2763 17.6147 20.1056 15.2977 20.1056ZM18.6513 11.6301C18.6513 12.1789 19.0781 12.6057 19.6269 12.6057C20.1757 12.6057 20.6025 12.1789 20.6025 11.6301C20.6025 11.0813 20.1757 10.6545 19.6269 10.6545C19.0781 10.6545 18.6513 11.0813 18.6513 11.6301Z" fill="black"/>
<path fill-rule="evenodd" clip-rule="evenodd" d="M0.419922 15.8377C0.419922 7.54512 7.12715 0.837891 15.4197 0.837891C23.7123 0.837891 30.4805 7.54512 30.4195 15.8377C30.4195 24.1303 23.7123 30.8375 15.4197 30.8375C7.12715 30.8375 0.419922 24.1303 0.419922 15.8377ZM22.066 22.8496C22.9196 21.9959 23.4074 20.7764 23.4074 19.374V12.6668C23.4074 11.2644 22.9806 10.1059 22.1269 9.25221C21.2733 8.39856 20.1148 7.91076 18.7124 7.91076H12.0051C9.13932 7.91076 7.2491 9.86195 7.2491 12.6668V19.374C7.2491 20.7764 7.67592 21.9959 8.59054 22.8496C9.44419 23.7032 10.6637 24.1301 12.0051 24.1301H18.6514C19.9928 24.1301 21.2123 23.7032 22.066 22.8496Z" fill="black"/>
</svg>
