<svg width="30" height="29" viewBox="0 0 30 29" fill="none" xmlns="http://www.w3.org/2000/svg">
<path fill-rule="evenodd" clip-rule="evenodd" d="M9.37505 18.1251C6.10127 18.1251 3.4375 15.4613 3.4375 12.1875C3.4375 8.91377 6.10127 6.25 9.37505 6.25C12.6488 6.25 15.3126 8.91377 15.3126 12.1875C15.3126 15.4613 12.6488 18.1251 9.37505 18.1251ZM4.99501 10.5325C4.79126 11.065 4.68751 11.62 4.68751 12.1875C4.68751 14.7726 6.79003 16.8751 9.37505 16.8751C11.9051 16.8751 13.9726 14.8613 14.0601 12.3513C13.1288 12.6513 12.1613 12.8038 11.1763 12.8038C8.8863 12.8038 6.70753 12 4.99501 10.5325ZM5.61002 9.40128C7.10878 10.7688 9.12005 11.5488 11.1726 11.5488C12.1188 11.5488 13.0438 11.3888 13.9251 11.0725C13.4163 8.98752 11.5426 7.50001 9.37505 7.50001C7.88504 7.50001 6.49628 8.20627 5.61002 9.40128Z" fill="white"/>
<path fill-rule="evenodd" clip-rule="evenodd" d="M0.625005 28.7502C0.280002 28.7502 0 28.4702 0 28.1252C0 22.9564 4.20628 18.7501 9.37508 18.7501C14.5439 18.7501 18.7502 22.9564 18.7502 28.1252C18.7502 28.4702 18.4702 28.7502 18.1252 28.7502H0.625005ZM17.4764 27.5002C17.1576 23.2689 13.6589 20.0001 9.37508 20.0001C5.09129 20.0001 1.59251 23.2689 1.27376 27.5002H17.4764Z" fill="white"/>
<path fill-rule="evenodd" clip-rule="evenodd" d="M9.37501 25.6252C9.03 25.6252 8.75 25.3452 8.75 25.0002V21.8751C8.75 21.5301 9.03 21.2501 9.37501 21.2501C9.72001 21.2501 10 21.5301 10 21.8751V25.0002C10 25.3452 9.72001 25.6252 9.37501 25.6252Z" fill="white"/>
<path fill-rule="evenodd" clip-rule="evenodd" d="M29.3751 15.0001C29.2076 15.0001 29.0514 14.9351 28.9326 14.8176L25.2601 11.1451C24.1351 12.0676 22.7351 12.5726 21.2863 12.5726C17.82 12.5726 15 9.75258 15 6.2863C15 2.82002 17.82 0 21.2863 0C24.7526 0 27.5726 2.82002 27.5726 6.2863C27.5726 7.73631 27.0676 9.13633 26.1438 10.2613L29.8164 13.9326C29.9339 14.0501 29.9989 14.2076 29.9989 14.3751C29.9989 14.5426 29.9339 14.6989 29.8164 14.8176C29.6989 14.9364 29.5414 15.0001 29.3751 15.0001ZM21.2863 1.25001C18.5088 1.25001 16.25 3.50878 16.25 6.2863C16.25 9.06383 18.5088 11.3226 21.2863 11.3226C24.0638 11.3226 26.3226 9.06383 26.3226 6.2863C26.3226 3.50878 24.0638 1.25001 21.2863 1.25001Z" fill="white"/>
<path fill-rule="evenodd" clip-rule="evenodd" d="M20.625 28.7502C20.28 28.7502 20 28.4702 20 28.1252C20 27.7802 20.28 27.5002 20.625 27.5002H28.7189C28.5763 26.0689 27.9451 24.7314 26.9188 23.7051C25.7388 22.5251 24.1688 21.8751 22.5 21.8751C21.505 21.8751 20.5113 22.1164 19.6275 22.5739C19.5388 22.6201 19.4388 22.6439 19.34 22.6439C19.105 22.6439 18.8925 22.5139 18.785 22.3064C18.7075 22.1576 18.6938 21.9889 18.7438 21.8301C18.795 21.6714 18.9038 21.5414 19.0525 21.4639C20.1125 20.9151 21.3038 20.6251 22.4988 20.6251C24.5026 20.6251 26.3863 21.4051 27.8026 22.8214C29.2189 24.2389 29.9989 26.1214 29.9989 28.1252C29.9989 28.4702 29.7189 28.7502 29.3739 28.7502H20.625Z" fill="white"/>
<path fill-rule="evenodd" clip-rule="evenodd" d="M22.4401 20.019C22.325 20.019 22.2113 20.0152 22.095 20.0065C20.8463 19.9165 19.7075 19.3452 18.8888 18.3989C18.07 17.4527 17.6675 16.2427 17.7575 14.9939C17.7763 14.7352 17.8163 14.4764 17.8775 14.2264C17.9463 13.9452 18.195 13.7489 18.485 13.7489C18.535 13.7489 18.585 13.7552 18.6338 13.7677C18.795 13.8064 18.9325 13.9064 19.0188 14.0502C19.1063 14.1927 19.1325 14.3614 19.0925 14.5227C19.0475 14.7064 19.0175 14.8964 19.0038 15.0852C18.8675 16.9752 20.295 18.6252 22.185 18.7614C22.2675 18.7677 22.35 18.7702 22.4325 18.7702C23.2588 18.7702 24.0563 18.4727 24.6813 17.9327C25.3751 17.3327 25.7938 16.4964 25.8601 15.5802C25.8838 15.2552 26.1563 15.0002 26.4813 15.0002C26.4901 15.0002 26.5226 15.0014 26.5313 15.0014C26.6951 15.0127 26.8463 15.0889 26.9563 15.2152C27.0663 15.3414 27.1188 15.5027 27.1076 15.6702C27.0176 16.9189 26.4463 18.0577 25.5001 18.8764C24.6476 19.6127 23.5613 20.019 22.4401 20.019Z" fill="white"/>
</svg>
