<svg width="22" height="21" viewBox="0 0 22 21" fill="none" xmlns="http://www.w3.org/2000/svg">
<path fill-rule="evenodd" clip-rule="evenodd" d="M3 0C3.79565 0 4.55871 0.31607 5.12132 0.87868C5.68393 1.44129 6 2.20435 6 3C6 4.65685 4.65685 6 3 6C1.34315 6 0 4.65685 0 3C0 1.34315 1.34315 0 3 0ZM21.9969 13.5628C21.9046 9.46044 19.7931 6.99 16.49 6.99L16.1877 7.00058L15.8648 7.02683C14.8997 7.12847 13.9694 7.43517 13.1358 7.92377L13 8.006V7.5L12.9919 7.41012C12.9496 7.17688 12.7455 7 12.5 7H7.5L7.41012 7.00806C7.17688 7.05039 7 7.25454 7 7.5V20.5L7.00806 20.5899C7.05039 20.8231 7.25454 21 7.5 21H12.5L12.5899 20.9919C12.8231 20.9496 13 20.7455 13 20.5V13.5L13.0069 13.3555C13.0796 12.5949 13.7203 12 14.5 12C15.3284 12 16 12.6716 16 13.5V20.5L16.0081 20.5899C16.0504 20.8231 16.2545 21 16.5 21H21.5L21.5899 20.9919C21.8231 20.9496 22 20.7455 22 20.5V13.845L21.9969 13.5628ZM5.99194 7.41012C5.94961 7.17688 5.74546 7 5.5 7H0.5L0.410124 7.00806C0.176875 7.05039 0 7.25454 0 7.5V20.5L0.00805567 20.5899C0.0503916 20.8231 0.25454 21 0.5 21H5.5L5.58988 20.9919C5.82312 20.9496 6 20.7455 6 20.5V7.5L5.99194 7.41012ZM5 8H1V20H5V8ZM12.8233 9.36643C13.8511 8.49533 15.1498 8.00872 16.497 7.98995L16.6964 7.99393L16.9042 8.0061C19.4398 8.20685 21 10.2787 21 13.845V20H17V13.5L16.9947 13.3356C16.91 12.0315 15.8255 11 14.5 11L14.3356 11.0053L14.1741 11.0211C12.9474 11.1808 12 12.2297 12 13.5V20H8V8H12V8.985L12.0064 9.06748C12.0657 9.43941 12.5201 9.62343 12.8233 9.36643ZM1 3C1 1.89543 1.89543 1 3 1C3.53043 1 4.03914 1.21071 4.41421 1.58579C4.78929 1.96086 5 2.46957 5 3C5 4.10457 4.10457 5 3 5C1.89543 5 1 4.10457 1 3Z" fill="#FF8200"/>
</svg>
