<svg width="100" height="60" viewBox="0 0 100 60" fill="none" xmlns="http://www.w3.org/2000/svg">
<path d="M6.0082 58.8582C3.43544 57.5738 1.47931 55.3226 0.569957 52.5996C-0.339398 49.8766 -0.127521 46.9048 1.15897 44.3376L20.3872 5.98683C21.0225 4.71485 21.9031 3.58041 22.9786 2.64854C24.0541 1.71666 25.3034 1.00565 26.6548 0.556248C28.0062 0.106845 29.4332 -0.0721214 30.854 0.0296024C32.2749 0.131326 33.6617 0.511741 34.9349 1.14905C37.502 2.43724 39.4516 4.68935 40.3553 7.41064C41.2591 10.1319 41.0431 13.0998 39.7548 15.6624L20.5486 53.9912C19.2663 56.5592 17.0145 58.5143 14.2881 59.4269C11.5616 60.3395 8.58356 60.135 6.0082 58.8582Z" fill="#FF8200"/>
<path d="M40.3417 58.8582C37.7689 57.5738 35.8128 55.3226 34.9035 52.5996C33.9941 49.8766 34.206 46.9048 35.4925 44.3376L54.7134 5.98681C55.3501 4.71524 56.2318 3.58134 57.3081 2.64993C58.3844 1.71851 59.6341 1.00784 60.9859 0.558554C62.3376 0.109265 63.7649 -0.0698353 65.1861 0.0314838C66.6072 0.132803 67.9944 0.512551 69.2684 1.14903C70.5421 1.78431 71.6778 2.66365 72.6108 3.73683C73.5438 4.81002 74.2558 6.05603 74.7061 7.40372C75.1564 8.75142 75.3362 10.1744 75.2352 11.5914C75.1342 13.0084 74.7545 14.3917 74.1176 15.6623L54.8968 53.9912C54.2618 55.2646 53.3816 56.4007 52.3063 57.3346C51.2311 58.2685 49.9819 58.9818 48.6302 59.4338C47.2785 59.8858 45.8507 60.0676 44.4285 59.9688C43.0064 59.8701 41.6176 59.4927 40.3417 58.8582Z" fill="#FF8200"/>
<path d="M85.5403 58.8509C93.5261 58.8509 99.9999 52.3924 99.9999 44.4255C99.9999 36.4585 93.5261 30 85.5403 30C77.5544 30 71.0806 36.4585 71.0806 44.4255C71.0806 52.3924 77.5544 58.8509 85.5403 58.8509Z" fill="#FF8200"/>
</svg>
