<svg width="30" height="30" viewBox="0 0 30 30" fill="none" xmlns="http://www.w3.org/2000/svg">
<path fill-rule="evenodd" clip-rule="evenodd" d="M15 6.87505C13.105 6.87505 11.5625 5.33254 11.5625 3.43752C11.5625 1.54251 13.105 0 15 0C16.895 0 18.4375 1.54251 18.4375 3.43752C18.4375 5.33254 16.895 6.87505 15 6.87505ZM15 1.25001C13.7938 1.25001 12.8125 2.23127 12.8125 3.43752C12.8125 4.64378 13.7938 5.62504 15 5.62504C16.2063 5.62504 17.1875 4.64378 17.1875 3.43752C17.1875 2.23127 16.2063 1.25001 15 1.25001Z" fill="#FF8200"/>
<path fill-rule="evenodd" clip-rule="evenodd" d="M9.37477 12.5001C9.18102 12.5001 9.00102 12.4126 8.88102 12.2588C8.76102 12.1051 8.72102 11.9088 8.76852 11.7201C9.34977 9.4388 11.1285 7.66004 13.4098 7.07879C13.9311 6.94628 14.4648 6.87878 14.9986 6.87878C17.9398 6.87878 20.5023 8.87005 21.2286 11.7213C21.2761 11.9101 21.2361 12.1063 21.1174 12.2588C21.0011 12.4101 20.8161 12.5001 20.6248 12.5001H9.37477ZM19.7536 11.2501C18.9411 9.3663 17.0811 8.12879 14.9986 8.12879C14.5698 8.12879 14.1386 8.18254 13.7198 8.29004C12.151 8.69005 10.8798 9.7813 10.246 11.2501H19.7536Z" fill="#FF8200"/>
<path fill-rule="evenodd" clip-rule="evenodd" d="M6.25002 24.3752C4.35501 24.3752 2.8125 22.8327 2.8125 20.9376C2.8125 19.0426 4.35501 17.5001 6.25002 17.5001C8.14504 17.5001 9.68755 19.0426 9.68755 20.9376C9.68755 22.8327 8.14504 24.3752 6.25002 24.3752ZM6.25002 18.7501C5.04377 18.7501 4.06251 19.7314 4.06251 20.9376C4.06251 22.1439 5.04377 23.1252 6.25002 23.1252C7.45628 23.1252 8.43754 22.1439 8.43754 20.9376C8.43754 19.7314 7.45628 18.7501 6.25002 18.7501Z" fill="#FF8200"/>
<path fill-rule="evenodd" clip-rule="evenodd" d="M0.624859 30.0002C0.429858 30.0002 0.249857 29.9115 0.131106 29.759C0.0136048 29.6077 -0.0288955 29.4065 0.0198549 29.2215C0.601109 26.9402 2.37987 25.1614 4.66114 24.5802C5.18614 24.4464 5.7249 24.3777 6.26115 24.3777C7.40616 24.3777 8.53741 24.6902 9.53242 25.2802C11.0099 26.1577 12.0562 27.5565 12.4812 29.2215C12.5287 29.4065 12.4862 29.6077 12.3687 29.759C12.2499 29.9115 12.0699 30.0002 11.8749 30.0002H0.624859ZM11.0037 28.7502C10.5737 27.7552 9.83617 26.9152 8.89367 26.3552C8.09116 25.8789 7.18116 25.6264 6.25865 25.6264C5.8274 25.6264 5.39239 25.6814 4.96864 25.7889C3.40113 26.1902 2.12987 27.2815 1.49612 28.7502H11.0037Z" fill="#FF8200"/>
<path fill-rule="evenodd" clip-rule="evenodd" d="M23.75 24.3752C21.855 24.3752 20.3125 22.8327 20.3125 20.9376C20.3125 19.0426 21.855 17.5001 23.75 17.5001C25.645 17.5001 27.1875 19.0426 27.1875 20.9376C27.1875 22.8327 25.645 24.3752 23.75 24.3752ZM23.75 18.7501C22.5438 18.7501 21.5625 19.7314 21.5625 20.9376C21.5625 22.1439 22.5438 23.1252 23.75 23.1252C24.9563 23.1252 25.9375 22.1439 25.9375 20.9376C25.9375 19.7314 24.9563 18.7501 23.75 18.7501Z" fill="#FF8200"/>
<path fill-rule="evenodd" clip-rule="evenodd" d="M18.1248 30.0002C17.9336 30.0002 17.7486 29.9102 17.6311 29.759C17.5136 29.609 17.4723 29.4077 17.5198 29.2215C18.1011 26.9402 19.8798 25.1614 22.1611 24.5802C22.6861 24.4464 23.2248 24.3777 23.7598 24.3777C24.9049 24.3777 26.0361 24.6902 27.0311 25.2802C28.5086 26.1577 29.5549 27.5565 29.9799 29.2215C30.0274 29.4077 29.9849 29.609 29.8674 29.759C29.7511 29.9102 29.5661 30.0002 29.3749 30.0002H18.1248ZM28.5036 28.7502C28.0736 27.7552 27.3361 26.9152 26.3936 26.3552C25.5911 25.8789 24.6799 25.6264 23.7586 25.6264C23.3273 25.6264 22.8936 25.6814 22.4698 25.7889C20.9011 26.1889 19.6298 27.2815 18.9961 28.749H28.5036V28.7502Z" fill="#FF8200"/>
<path fill-rule="evenodd" clip-rule="evenodd" d="M14.9999 25.004C13.6348 25.004 12.2948 24.7427 11.0161 24.2277C10.6961 24.099 10.5411 23.734 10.6698 23.414C10.7661 23.1765 10.9936 23.0227 11.2498 23.0227C11.3298 23.0227 11.4073 23.0377 11.4823 23.0677C12.6123 23.5227 13.7948 23.754 14.9999 23.754C16.2049 23.754 17.3874 23.524 18.5161 23.069C18.5924 23.039 18.6699 23.024 18.7499 23.024C19.0061 23.024 19.2336 23.1777 19.3299 23.4152C19.4586 23.7352 19.3036 24.099 18.9849 24.229C17.7049 24.7427 16.3649 25.004 14.9999 25.004Z" fill="#FF8200"/>
<path fill-rule="evenodd" clip-rule="evenodd" d="M24.9227 16.2501C24.8977 16.2501 24.8727 16.2489 24.8477 16.2451C24.679 16.2239 24.5315 16.1401 24.429 16.0089C24.3265 15.8776 24.2815 15.7139 24.3015 15.5476C24.7402 12.0363 23.1965 8.61632 20.2714 6.6238C20.1339 6.53005 20.0402 6.38755 20.0102 6.2238C19.9789 6.06005 20.0139 5.8938 20.1077 5.75505C20.2239 5.58504 20.4164 5.48254 20.6239 5.48254C20.7502 5.48254 20.8714 5.52004 20.9752 5.59129C24.289 7.84881 26.039 11.7238 25.5415 15.7026C25.504 16.0151 25.2377 16.2501 24.9227 16.2501Z" fill="#FF8200"/>
<path fill-rule="evenodd" clip-rule="evenodd" d="M5.07762 16.2501C4.76262 16.2501 4.49636 16.0151 4.45761 15.7026C3.96011 11.7238 5.70887 7.84881 9.02265 5.59129C9.12765 5.52004 9.2489 5.48254 9.37515 5.48254C9.58265 5.48254 9.77515 5.58504 9.8914 5.7563C9.98515 5.8938 10.0202 6.06005 9.9889 6.22505C9.95765 6.3888 9.86515 6.5313 9.7264 6.62505C6.80263 8.61757 5.25762 12.0376 5.69762 15.5489C5.71887 15.7139 5.67387 15.8776 5.57137 16.0101C5.46887 16.1426 5.32137 16.2264 5.15512 16.2464C5.12762 16.2489 5.10262 16.2501 5.07762 16.2501Z" fill="#FF8200"/>
</svg>
