<svg width="30" height="31" viewBox="0 0 30 31" fill="none" xmlns="http://www.w3.org/2000/svg">
<path fill-rule="evenodd" clip-rule="evenodd" d="M19.7635 19.3878C19.6245 19.3878 19.5245 19.4268 19.4635 19.5098C19.403 19.5878 19.3735 19.7218 19.3735 19.9078V20.3558H20.145V19.9078C20.145 19.7218 20.114 19.5878 20.0525 19.5098C19.9945 19.4268 19.896 19.3878 19.7635 19.3878ZM16.7545 19.3721C16.8715 19.3721 16.963 19.4101 17.0265 19.4871C17.088 19.5641 17.119 19.6786 17.119 19.8281V22.1201C17.119 22.2631 17.0925 22.3636 17.0425 22.4256C16.9925 22.4891 16.9145 22.5201 16.8075 22.5201C16.7335 22.5201 16.664 22.5036 16.597 22.4721C16.5295 22.4411 16.46 22.3866 16.3895 22.3156V19.5501C16.449 19.4891 16.509 19.4436 16.5695 19.4146C16.63 19.3851 16.6915 19.3721 16.7545 19.3721ZM19.374 21.0468V21.8828C19.374 22.1168 19.4025 22.2788 19.459 22.3698C19.518 22.4603 19.6155 22.5043 19.755 22.5043C19.8995 22.5043 20.0005 22.4663 20.058 22.3898C20.115 22.3133 20.1455 22.1453 20.1455 21.8833V21.6808H21.043V21.9088C21.043 22.3643 20.9345 22.7068 20.7145 22.9383C20.497 23.1678 20.17 23.2818 19.7355 23.2818C19.345 23.2818 19.0365 23.1608 18.812 22.9163C18.588 22.6733 18.474 22.3378 18.474 21.9093V19.9163C18.474 19.5323 18.5985 19.2173 18.845 18.9753C19.0915 18.7328 19.409 18.6118 19.8005 18.6118C20.2 18.6118 20.507 18.7243 20.722 18.9488C20.9365 19.1728 21.043 19.4953 21.043 19.9163V21.0483H19.374V21.0468ZM17.8115 22.9651C17.676 23.1331 17.477 23.2156 17.218 23.2156C17.0465 23.2156 16.895 23.1846 16.762 23.1196C16.6285 23.0551 16.5025 22.9561 16.389 22.8191V23.1596H15.507V17.1436H16.389V19.0811C16.5075 18.9461 16.6315 18.8421 16.763 18.7726C16.8965 18.7016 17.03 18.6671 17.1655 18.6671C17.4425 18.6671 17.653 18.7616 17.798 18.9496C17.945 19.1391 18.017 19.4161 18.017 19.7796V22.2426C18.017 22.5566 17.9485 22.7971 17.8115 22.9651ZM13.979 23.1598V22.6718C13.8165 22.8523 13.65 22.9898 13.4745 23.0828C13.3 23.1783 13.1315 23.2238 12.9675 23.2238C12.765 23.2238 12.615 23.1593 12.511 23.0258C12.4105 22.8928 12.3585 22.6968 12.3585 22.4313V18.7203H13.2305V22.1248C13.2305 22.2303 13.249 22.3058 13.284 22.3533C13.3225 22.4008 13.382 22.4238 13.463 22.4238C13.527 22.4238 13.609 22.3928 13.707 22.3298C13.8055 22.2673 13.8945 22.1883 13.978 22.0923V18.7203H14.85V23.1593H13.979V23.1598ZM10.958 18.0176V23.1596H9.974V18.0176H8.957V17.1436H11.975V18.0176H10.958ZM14.997 15.2066C14.997 15.2061 21.037 15.2156 21.754 15.9316C22.4735 16.6491 22.4815 20.1886 22.4815 20.2091C22.4815 20.2091 22.4755 23.7676 21.754 24.4871C21.037 25.2021 14.997 25.2176 14.997 25.2176C14.997 25.2176 8.95749 25.2021 8.23899 24.4866C7.51999 23.7691 7.51849 20.2356 7.51849 20.2086C7.51849 20.1881 7.52049 16.6486 8.23899 15.9311C8.95799 15.2156 14.997 15.2061 14.997 15.2066ZM19.76 13.3451H18.777V12.8051C18.598 13.0036 18.409 13.1566 18.212 13.2596C18.016 13.3636 17.8265 13.4156 17.642 13.4156C17.413 13.4156 17.2435 13.3426 17.1285 13.1971C17.014 13.0516 16.956 12.8336 16.956 12.5416V8.45557H17.937V12.2041C17.937 12.3196 17.9595 12.4036 18.0005 12.4551C18.0405 12.5071 18.1085 12.5331 18.2 12.5331C18.2715 12.5331 18.3635 12.4986 18.474 12.4301C18.584 12.3616 18.6855 12.2741 18.7765 12.1666V8.45557H19.7595V13.3451H19.76ZM14.4235 12.5118C14.493 12.5853 14.593 12.6213 14.7235 12.6213C14.8565 12.6213 14.9615 12.5838 15.0405 12.5098C15.119 12.4338 15.158 12.3308 15.158 12.2008V9.53727C15.158 9.43027 15.118 9.34377 15.0375 9.27777C14.9575 9.21227 14.8525 9.17977 14.7235 9.17977C14.603 9.17977 14.506 9.21227 14.4305 9.27777C14.3565 9.34377 14.318 9.43027 14.318 9.53727V12.2008C14.318 12.3343 14.354 12.4373 14.4235 12.5118ZM13.704 8.66903C13.968 8.44453 14.3245 8.33203 14.77 8.33203C15.176 8.33203 15.51 8.45053 15.7705 8.68753C16.029 8.92403 16.159 9.22903 16.159 9.60153V12.127C16.159 12.545 16.0315 12.8725 15.778 13.111C15.5215 13.349 15.172 13.468 14.725 13.468C14.296 13.468 13.9515 13.345 13.693 13.1C13.4365 12.854 13.307 12.5235 13.307 12.108V9.57403C13.3065 9.19453 13.4385 8.89303 13.704 8.66903ZM10.631 6.71777H9.5165L10.8335 10.7193V13.3453H11.94V10.5953L13.227 6.71777H12.102L11.419 9.36677H11.3495L10.631 6.71777ZM15 30.7178C6.716 30.7178 0 24.0018 0 15.7178C0 7.43327 6.716 0.717773 15 0.717773C23.284 0.717773 30 7.43327 30 15.7178C30 24.0018 23.284 30.7178 15 30.7178Z" fill="black"/>
</svg>
